<svg version="1.1" id="Layer_1" xmlns="http://www.w3.org/2000/svg" xmlns:xlink="http://www.w3.org/1999/xlink" x="0px" y="0px"
	 width="100%" viewBox="0 0 348 348" enable-background="new 0 0 348 348" xml:space="preserve">
<path fill="#000000" opacity="0.000000" stroke="none" 
	d="
M349.000000,196.000000 
	C349.000000,246.965225 349.000000,297.930450 349.000000,348.947815 
	C233.113907,348.947815 117.227798,348.947815 1.000000,348.947815 
	C1.000000,302.312988 1.000000,255.625153 1.335456,208.172699 
	C2.447407,209.291275 3.665313,211.114426 3.930863,213.067093 
	C6.139022,229.304474 11.926333,244.518631 18.868774,259.048950 
	C26.610741,275.252655 37.560734,289.566833 50.626522,302.073090 
	C53.704445,305.019196 56.926823,307.818207 60.144989,310.613190 
	C66.861450,316.446503 73.452454,322.444519 80.440453,327.935211 
	C83.339165,330.212830 87.146996,331.317383 90.497429,333.040863 
	C93.594749,334.634125 96.536003,336.568695 99.724998,337.935211 
	C102.938950,339.312469 106.328171,340.350739 109.721321,341.223785 
	C115.143852,342.618958 120.609344,343.875244 126.102211,344.959625 
	C130.038849,345.736816 134.198410,344.267639 135.229172,340.839935 
	C136.202011,337.604797 134.539688,333.577209 134.018402,329.457458 
	C133.700806,325.998383 133.401321,322.980072 133.035614,319.561707 
	C132.118118,310.899872 128.991806,307.606934 121.584961,305.356232 
	C114.689240,303.260895 107.389046,302.529755 100.324982,300.940033 
	C97.258675,300.249939 93.253616,299.781036 91.578850,297.688141 
	C88.193161,293.457214 84.833160,289.750885 79.566582,288.044281 
	C78.535637,287.710236 77.197243,287.075806 76.804230,286.213623 
	C72.392410,276.534912 64.892448,268.724945 60.445900,259.058380 
	C59.835052,257.730438 57.846809,256.096527 56.589138,256.171051 
	C51.591278,256.467285 49.082760,254.125900 48.040516,249.587860 
	C52.450691,246.592209 58.558678,246.466064 60.347919,250.067047 
	C62.670601,254.741608 66.868858,255.164856 70.833237,255.847275 
	C73.546570,256.314331 74.967453,256.625763 75.108963,259.814911 
	C75.351509,265.280853 78.354927,268.806274 83.478485,271.100037 
	C86.194893,272.316132 89.385147,274.571869 90.383621,277.130219 
	C93.274246,284.536682 99.083214,285.139557 105.460258,284.965240 
	C111.881828,284.789734 118.296684,284.060974 124.712677,284.083832 
	C130.143372,284.103149 133.649399,281.602509 134.864685,276.720978 
	C136.099396,271.761414 136.707520,266.565857 136.898026,261.447906 
	C137.106094,255.858307 131.913315,255.503555 128.256897,254.054459 
	C121.896454,251.533691 115.268471,249.653275 109.019142,246.899612 
	C105.120186,245.181625 101.778419,242.235260 98.043739,240.088684 
	C96.733490,239.335602 94.414360,239.850006 93.547806,238.890137 
	C86.780487,231.394226 77.613800,225.938583 74.122910,215.616287 
	C72.078438,209.570953 68.144249,203.919495 67.270668,197.776505 
	C65.656082,186.422867 65.087746,174.831192 65.225807,163.352402 
	C65.303596,156.885269 66.782303,150.085739 69.234550,144.092514 
	C71.798035,137.827438 76.420639,132.427673 79.857285,126.484344 
	C81.009834,124.491150 82.117821,121.861473 81.791733,119.747032 
	C81.038177,114.860832 78.461159,110.131256 78.360680,105.302017 
	C78.247589,99.867271 78.969208,93.860237 81.333313,89.097710 
	C83.365326,85.004211 88.162712,82.244469 91.885742,79.069008 
	C92.482552,78.559982 93.957993,78.674698 94.856522,78.989067 
	C103.273331,81.933830 111.617607,85.088051 120.052895,87.977264 
	C129.064621,91.063911 138.317169,92.487488 147.909286,92.022964 
	C160.136398,91.430847 172.381638,90.947495 184.619797,90.929573 
	C195.188995,90.914101 205.774887,92.137207 216.323624,91.820610 
	C223.650467,91.600708 230.999298,90.232361 237.582275,86.149162 
	C241.742737,83.568573 246.259048,81.405884 250.861145,79.729393 
	C257.899017,77.165596 269.234070,83.155350 269.949280,89.625565 
	C270.544891,95.014038 270.866577,100.450790 270.965637,105.872444 
	C271.180847,117.653534 272.966278,128.948120 278.133514,139.783569 
	C281.202087,146.218170 284.314301,153.291840 284.673462,160.219879 
	C285.398285,174.202301 285.959991,188.233917 281.239624,202.121796 
	C275.295929,219.608826 267.940674,235.192413 248.883560,241.632889 
	C247.389374,242.137833 245.949905,242.966034 244.660690,243.889313 
	C237.438461,249.061493 229.520081,252.153488 220.610275,253.078751 
	C212.352264,253.936325 211.126633,255.994675 213.031418,264.148376 
	C213.502960,266.166992 214.694031,268.054565 214.953156,270.079315 
	C216.089401,278.957489 217.430222,287.842224 217.886307,296.765961 
	C218.387466,306.571686 217.786591,316.429688 218.101715,326.250885 
	C218.234406,330.386353 219.110428,334.599854 220.322449,338.572296 
	C221.758987,343.280548 225.716202,344.976501 230.908279,344.038879 
	C236.942169,342.949249 243.127472,342.434937 248.986786,340.760284 
	C251.652359,339.998444 253.732788,337.092712 255.996475,335.067596 
	C256.944733,334.219238 257.560883,332.433289 258.531189,332.268250 
	C264.609283,331.234467 269.158142,327.968781 273.645996,323.887207 
	C280.499542,317.654083 288.458740,312.598877 295.059021,306.135223 
	C302.412842,298.933563 308.790771,290.732391 315.558716,282.936035 
	C329.449677,266.934235 336.287689,247.436401 343.035797,227.846756 
	C346.283081,218.419876 347.338654,208.825302 347.092529,198.956818 
	C347.068390,197.987671 348.333405,196.986374 349.000000,196.000000 
z"/>
<path fill="#FFFFFF" opacity="1.000000" stroke="none" 
	d="
M134.036514,329.898224 
	C134.539688,333.577209 136.202011,337.604797 135.229172,340.839935 
	C134.198410,344.267639 130.038849,345.736816 126.102211,344.959625 
	C120.609344,343.875244 115.143852,342.618958 109.721321,341.223785 
	C106.328171,340.350739 102.938950,339.312469 99.724998,337.935211 
	C96.536003,336.568695 93.594749,334.634125 90.497429,333.040863 
	C87.146996,331.317383 83.339165,330.212830 80.440453,327.935211 
	C73.452454,322.444519 66.861450,316.446503 60.144989,310.613190 
	C56.926823,307.818207 53.704445,305.019196 50.626522,302.073090 
	C37.560734,289.566833 26.610741,275.252655 18.868774,259.048950 
	C11.926333,244.518631 6.139022,229.304474 3.930863,213.067093 
	C3.665313,211.114426 2.447407,209.291275 1.335456,207.704041 
	C1.000000,188.645767 1.000000,169.291550 1.348909,149.772156 
	C2.127715,148.950623 2.818221,148.342133 2.948953,147.630768 
	C5.455780,133.990219 8.791325,120.441269 15.543080,108.364395 
	C23.152485,94.753456 31.415052,81.331566 40.936970,69.021294 
	C48.644596,59.056602 57.996998,50.078384 67.766312,42.059303 
	C83.487114,29.154980 100.968658,19.048538 120.676598,12.960903 
	C137.475723,7.771778 154.689468,5.445686 172.061676,5.229513 
	C184.797134,5.071037 197.811630,5.799050 210.239044,8.369234 
	C223.139343,11.037221 235.694504,15.862471 248.009293,20.733562 
	C259.929718,25.448671 270.283539,32.965557 280.019318,41.405308 
	C294.479248,53.940357 310.130249,65.304291 319.815826,82.383446 
	C327.648621,96.195450 336.311676,109.733002 342.257080,124.348007 
	C346.052338,133.677444 345.520996,144.755310 347.067963,155.028412 
	C347.228119,156.091797 348.333313,157.012878 349.000000,158.000000 
	C349.000000,159.388885 349.000000,160.777786 348.657501,162.287048 
	C346.650696,164.220581 345.617920,165.939529 349.000000,167.000000 
	C349.000000,176.354233 349.000000,185.708450 349.000000,195.531342 
	C348.333405,196.986374 347.068390,197.987671 347.092529,198.956818 
	C347.338654,208.825302 346.283081,218.419876 343.035797,227.846756 
	C336.287689,247.436401 329.449677,266.934235 315.558716,282.936035 
	C308.790771,290.732391 302.412842,298.933563 295.059021,306.135223 
	C288.458740,312.598877 280.499542,317.654083 273.645996,323.887207 
	C269.158142,327.968781 264.609283,331.234467 258.531189,332.268250 
	C257.560883,332.433289 256.944733,334.219238 255.996475,335.067596 
	C253.732788,337.092712 251.652359,339.998444 248.986786,340.760284 
	C243.127472,342.434937 236.942169,342.949249 230.908279,344.038879 
	C225.716202,344.976501 221.758987,343.280548 220.322449,338.572296 
	C219.110428,334.599854 218.234406,330.386353 218.101715,326.250885 
	C217.786591,316.429688 218.387466,306.571686 217.886307,296.765961 
	C217.430222,287.842224 216.089401,278.957489 214.953156,270.079315 
	C214.694031,268.054565 213.502960,266.166992 213.031418,264.148376 
	C211.126633,255.994675 212.352264,253.936325 220.610275,253.078751 
	C229.520081,252.153488 237.438461,249.061493 244.660690,243.889313 
	C245.949905,242.966034 247.389374,242.137833 248.883560,241.632889 
	C267.940674,235.192413 275.295929,219.608826 281.239624,202.121796 
	C285.959991,188.233917 285.398285,174.202301 284.673462,160.219879 
	C284.314301,153.291840 281.202087,146.218170 278.133514,139.783569 
	C272.966278,128.948120 271.180847,117.653534 270.965637,105.872444 
	C270.866577,100.450790 270.544891,95.014038 269.949280,89.625565 
	C269.234070,83.155350 257.899017,77.165596 250.861145,79.729393 
	C246.259048,81.405884 241.742737,83.568573 237.582275,86.149162 
	C230.999298,90.232361 223.650467,91.600708 216.323624,91.820610 
	C205.774887,92.137207 195.188995,90.914101 184.619797,90.929573 
	C172.381638,90.947495 160.136398,91.430847 147.909286,92.022964 
	C138.317169,92.487488 129.064621,91.063911 120.052895,87.977264 
	C111.617607,85.088051 103.273331,81.933830 94.856522,78.989067 
	C93.957993,78.674698 92.482552,78.559982 91.885742,79.069008 
	C88.162712,82.244469 83.365326,85.004211 81.333313,89.097710 
	C78.969208,93.860237 78.247589,99.867271 78.360680,105.302017 
	C78.461159,110.131256 81.038177,114.860832 81.791733,119.747032 
	C82.117821,121.861473 81.009834,124.491150 79.857285,126.484344 
	C76.420639,132.427673 71.798035,137.827438 69.234550,144.092514 
	C66.782303,150.085739 65.303596,156.885269 65.225807,163.352402 
	C65.087746,174.831192 65.656082,186.422867 67.270668,197.776505 
	C68.144249,203.919495 72.078438,209.570953 74.122910,215.616287 
	C77.613800,225.938583 86.780487,231.394226 93.547806,238.890137 
	C94.414360,239.850006 96.733490,239.335602 98.043739,240.088684 
	C101.778419,242.235260 105.120186,245.181625 109.019142,246.899612 
	C115.268471,249.653275 121.896454,251.533691 128.256897,254.054459 
	C131.913315,255.503555 137.106094,255.858307 136.898026,261.447906 
	C136.707520,266.565857 136.099396,271.761414 134.864685,276.720978 
	C133.649399,281.602509 130.143372,284.103149 124.712677,284.083832 
	C118.296684,284.060974 111.881828,284.789734 105.460258,284.965240 
	C99.083214,285.139557 93.274246,284.536682 90.383621,277.130219 
	C89.385147,274.571869 86.194893,272.316132 83.478485,271.100037 
	C78.354927,268.806274 75.351509,265.280853 75.108963,259.814911 
	C74.967453,256.625763 73.546570,256.314331 70.833237,255.847275 
	C66.868858,255.164856 62.670601,254.741608 60.347919,250.067047 
	C58.558678,246.466064 52.450691,246.592209 48.040516,249.587860 
	C49.082760,254.125900 51.591278,256.467285 56.589138,256.171051 
	C57.846809,256.096527 59.835052,257.730438 60.445900,259.058380 
	C64.892448,268.724945 72.392410,276.534912 76.804230,286.213623 
	C77.197243,287.075806 78.535637,287.710236 79.566582,288.044281 
	C84.833160,289.750885 88.193161,293.457214 91.578850,297.688141 
	C93.253616,299.781036 97.258675,300.249939 100.324982,300.940033 
	C107.389046,302.529755 114.689240,303.260895 121.584961,305.356232 
	C128.991806,307.606934 132.118118,310.899872 132.721008,319.830811 
	C132.320831,323.289246 132.097092,326.078918 132.109024,328.867554 
	C132.110519,329.213867 133.363449,329.554810 134.036514,329.898224 
z"/>
<path fill="#000000" opacity="0.000000" stroke="none" 
	d="
M349.000000,157.531342 
	C348.333313,157.012878 347.228119,156.091797 347.067963,155.028412 
	C345.520996,144.755310 346.052338,133.677444 342.257080,124.348007 
	C336.311676,109.733002 327.648621,96.195450 319.815826,82.383446 
	C310.130249,65.304291 294.479248,53.940357 280.019318,41.405308 
	C270.283539,32.965557 259.929718,25.448671 248.009293,20.733562 
	C235.694504,15.862471 223.139343,11.037221 210.239044,8.369234 
	C197.811630,5.799050 184.797134,5.071037 172.061676,5.229513 
	C154.689468,5.445686 137.475723,7.771778 120.676598,12.960903 
	C100.968658,19.048538 83.487114,29.154980 67.766312,42.059303 
	C57.996998,50.078384 48.644596,59.056602 40.936970,69.021294 
	C31.415052,81.331566 23.152485,94.753456 15.543080,108.364395 
	C8.791325,120.441269 5.455780,133.990219 2.948953,147.630768 
	C2.818221,148.342133 2.127715,148.950623 1.348909,149.303497 
	C1.000000,99.699738 1.000000,50.399471 1.000000,1.049603 
	C116.889153,1.049603 232.778336,1.049603 349.000000,1.049603 
	C349.000000,53.020424 349.000000,105.041550 349.000000,157.531342 
z"/>
<path fill="#000000" opacity="1.000000" stroke="none" 
	d="
M349.000000,166.600006 
	C345.617920,165.939529 346.650696,164.220581 348.657501,162.703705 
	C349.000000,164.066666 349.000000,165.133347 349.000000,166.600006 
z"/>
<path fill="#EFEFEF" opacity="1.000000" stroke="none" 
	d="
M134.018402,329.457458 
	C133.363449,329.554810 132.110519,329.213867 132.109024,328.867554 
	C132.097092,326.078918 132.320831,323.289246 132.787201,320.230835 
	C133.401321,322.980072 133.700806,325.998383 134.018402,329.457458 
z"/>
</svg>